<svg xmlns="http://www.w3.org/2000/svg" width="16" height="16" viewBox="0 0 16 16" fill="#000000"><path d="M9.34 0.53L9.6 0.75L9.75 1.2L9.75 3.65L14 3.65L14.34 3.73L14.6 3.95L14.75 4.4L14.75 14.6L14.67 14.94L14.45 15.2L14 15.35L2 15.35L1.67 15.27L1.4 15.05L1.25 14.6L1.25 4.4L1.33 4.07L1.55 3.8L2 3.65L6.25 3.65L6.25 1.2L6.33 0.87L6.55 0.6L7 0.45L9 0.45ZM5 10.86L4.74 10.99L4.66 11.2L4.66 12.6L4.79 12.86L5 12.94L11 12.94L11.26 12.82L11.34 12.6L11.34 11.2L11.22 10.94L11 10.86ZM4.3 6.66L4.04 6.79L3.96 7L3.96 9.6L4.09 9.86L4.3 9.94L6.7 9.94L6.96 9.82L7.04 9.6L7.04 7L6.92 6.74L6.7 6.66ZM9.3 6.66L9.04 6.79L8.96 7L8.96 9.6L9.09 9.86L9.3 9.94L11.7 9.94L11.96 9.82L12.04 9.6L12.04 7L11.92 6.74L11.7 6.66Z"/></svg>
